<svg width="19" height="10" viewBox="0 0 19 10" fill="none" xmlns="http://www.w3.org/2000/svg">
<path d="M0.257252 4.67357C0.0404311 4.89039 0.0404311 5.24193 0.257252 5.45875L3.79055 8.99205C4.00738 9.20887 4.35891 9.20887 4.57573 8.99205C4.79255 8.77523 4.79255 8.4237 4.57573 8.20688L1.43502 5.06616L4.57573 1.92545C4.79255 1.70863 4.79255 1.35709 4.57573 1.14027C4.35891 0.92345 4.00738 0.92345 3.79055 1.14027L0.257252 4.67357ZM18.4164 5.62137C18.723 5.62137 18.9716 5.37279 18.9716 5.06616C18.9716 4.75953 18.723 4.51096 18.4164 4.51096V5.62137ZM0.649841 5.62137H18.4164V4.51096H0.649841V5.62137Z" fill="#A7AEBF"/>
</svg>
