<svg width="28" height="13" viewBox="0 0 28 13" fill="none" xmlns="http://www.w3.org/2000/svg">
<path opacity="0.35" d="M1.29051 3.18649C1.29051 1.85905 2.36662 0.782938 3.69406 0.782938H22.183C23.5104 0.782938 24.5865 1.85905 24.5865 3.18649V9.8425C24.5865 11.1699 23.5104 12.2461 22.183 12.2461H3.69406C2.36662 12.2461 1.29051 11.1699 1.29051 9.84249V3.18649Z" stroke="white" stroke-width="1.10933"/>
<path opacity="0.4" d="M26.2505 4.2959V8.73323C27.1432 8.35742 27.7237 7.48316 27.7237 6.51457C27.7237 5.54597 27.1432 4.67171 26.2505 4.2959Z" fill="white"/>
<path d="M2.95447 3.92613C2.95447 3.10924 3.61669 2.44702 4.43358 2.44702H21.4434C22.2603 2.44702 22.9225 3.10924 22.9225 3.92613V9.10302C22.9225 9.91991 22.2603 10.5821 21.4434 10.5821H4.43358C3.61669 10.5821 2.95447 9.91991 2.95447 9.10302V3.92613Z" fill="white"/>
</svg>
