<svg width="21" height="21" viewBox="0 0 21 21" fill="none" xmlns="http://www.w3.org/2000/svg">
<path d="M10.0698 20.5C4.54682 20.5 0.0698242 16.023 0.0698242 10.5C0.0698242 4.977 4.54682 0.5 10.0698 0.5C15.5928 0.5 20.0698 4.977 20.0698 10.5C20.0698 16.023 15.5928 20.5 10.0698 20.5ZM10.0698 18.5C12.1916 18.5 14.2264 17.6571 15.7267 16.1569C17.227 14.6566 18.0698 12.6217 18.0698 10.5C18.0698 8.37827 17.227 6.34344 15.7267 4.84315C14.2264 3.34285 12.1916 2.5 10.0698 2.5C7.94809 2.5 5.91326 3.34285 4.41297 4.84315C2.91268 6.34344 2.06982 8.37827 2.06982 10.5C2.06982 12.6217 2.91268 14.6566 4.41297 16.1569C5.91326 17.6571 7.94809 18.5 10.0698 18.5ZM5.06982 7.5L8.06982 4L11.0698 7.5H9.06982V11.5H7.06982V7.5H5.06982ZM15.0698 13.5L12.0698 17L9.06982 13.5H11.0698V9.5H13.0698V13.5H15.0698Z" fill="#78847B"/>
</svg>
