<svg width="12" height="12" viewBox="0 0 12 12" fill="none" xmlns="http://www.w3.org/2000/svg">
<path d="M12.0001 10.5C12.0001 10.8978 11.842 11.2794 11.5607 11.5607C11.2794 11.842 10.8979 12 10.5001 12L1.50006 12C1.10224 12 0.720706 11.842 0.439401 11.5607C0.158096 11.2794 6.10483e-05 10.8978 6.1053e-05 10.5L6.11604e-05 1.5C6.11651e-05 1.10218 0.158096 0.720645 0.439401 0.439341C0.720706 0.158036 1.10224 9.66818e-07 1.50006 9.71562e-07L10.5001 1.07889e-06C10.8979 1.08363e-06 11.2794 0.158036 11.5607 0.439341C11.842 0.720645 12.0001 1.10218 12.0001 1.5L12.0001 10.5ZM3.89781 4.428L6.96981 7.5L4.89381 7.5C4.79436 7.5 4.69897 7.53951 4.62865 7.60984C4.55832 7.68016 4.51881 7.77554 4.51881 7.875C4.51881 7.97446 4.55832 8.06984 4.62865 8.14017C4.69897 8.21049 4.79436 8.25 4.89381 8.25L7.87506 8.25C7.97452 8.25 8.0699 8.21049 8.14023 8.14017C8.21055 8.06984 8.25006 7.97446 8.25006 7.875L8.25006 4.89375C8.25006 4.79429 8.21055 4.69891 8.14023 4.62859C8.0699 4.55826 7.97452 4.51875 7.87506 4.51875C7.77561 4.51875 7.68022 4.55826 7.6099 4.62859C7.53957 4.69891 7.50006 4.79429 7.50006 4.89375L7.50006 6.96975L4.42806 3.89775C4.39347 3.86193 4.35209 3.83337 4.30634 3.81371C4.26059 3.79406 4.21138 3.78371 4.16159 3.78328C4.11179 3.78285 4.06241 3.79234 4.01633 3.81119C3.97024 3.83005 3.92837 3.85789 3.89316 3.8931C3.85795 3.92831 3.83011 3.97018 3.81125 4.01627C3.7924 4.06235 3.78291 4.11173 3.78334 4.16153C3.78378 4.21132 3.79412 4.26053 3.81377 4.30628C3.83343 4.35203 3.862 4.39341 3.89781 4.428Z" fill="#00BA4A"/>
</svg>
