<svg width="18" height="20" viewBox="0 0 18 20" fill="none" xmlns="http://www.w3.org/2000/svg">
<path d="M3.70012 1L1.00012 4.6V17.2C1.00012 17.6774 1.18976 18.1352 1.52733 18.4728C1.8649 18.8104 2.32273 19 2.80012 19H15.4001C15.8775 19 16.3354 18.8104 16.6729 18.4728C17.0105 18.1352 17.2001 17.6774 17.2001 17.2V4.6L14.5001 1H3.70012Z" stroke="#78847B" stroke-width="1.5" stroke-linecap="round" stroke-linejoin="round"/>
<path d="M1 4.6001H17.2" stroke="#78847B" stroke-width="1.5" stroke-linecap="round" stroke-linejoin="round"/>
<path d="M12.7002 8.2002C12.7002 9.15497 12.3209 10.0706 11.6458 10.7458C10.9706 11.4209 10.055 11.8002 9.10018 11.8002C8.1454 11.8002 7.22973 11.4209 6.5546 10.7458C5.87947 10.0706 5.50018 9.15497 5.50018 8.2002" stroke="#78847B" stroke-width="1.5" stroke-linecap="round" stroke-linejoin="round"/>
</svg>
