<svg width="12" height="12" viewBox="0 0 12 12" fill="none" xmlns="http://www.w3.org/2000/svg">
<path d="M10.5 -8.2254e-07C10.8978 -8.57319e-07 11.2794 0.158035 11.5607 0.43934C11.842 0.720644 12 1.10217 12 1.5L12 10.5C12 10.8978 11.842 11.2794 11.5607 11.5607C11.2794 11.842 10.8978 12 10.5 12L1.5 12C1.10218 12 0.720645 11.842 0.439341 11.5607C0.158036 11.2794 8.57319e-07 10.8978 8.2254e-07 10.5L3.57351e-08 1.5C9.56092e-10 1.10217 0.158035 0.720645 0.43934 0.439341C0.720644 0.158036 1.10218 -9.56343e-10 1.5 -3.57352e-08L10.5 -8.2254e-07ZM4.428 8.10225L7.5 5.03025L7.5 7.10625C7.5 7.20571 7.53951 7.30109 7.60983 7.37142C7.68016 7.44174 7.77554 7.48125 7.875 7.48125C7.97446 7.48125 8.06984 7.44174 8.14016 7.37141C8.21049 7.30109 8.25 7.20571 8.25 7.10625L8.25 4.125C8.25 4.02554 8.21049 3.93016 8.14016 3.85983C8.06984 3.78951 7.97446 3.75 7.875 3.75L4.89375 3.75C4.79429 3.75 4.69891 3.78951 4.62859 3.85983C4.55826 3.93016 4.51875 4.02554 4.51875 4.125C4.51875 4.22446 4.55826 4.31984 4.62859 4.39017C4.69891 4.46049 4.79429 4.5 4.89375 4.5L6.96975 4.5L3.89775 7.572C3.86193 7.60659 3.83337 7.64797 3.81371 7.69372C3.79406 7.73948 3.78371 7.78868 3.78328 7.83847C3.78285 7.88827 3.79234 7.93765 3.81119 7.98373C3.83005 8.02982 3.85789 8.07169 3.8931 8.1069C3.92831 8.14211 3.97018 8.16995 4.01627 8.18881C4.06235 8.20766 4.11173 8.21715 4.16153 8.21672C4.21132 8.21629 4.26053 8.20594 4.30628 8.18629C4.35203 8.16663 4.39341 8.13807 4.428 8.10225Z" fill="#E54B47"/>
</svg>
