<svg width="20" height="21" viewBox="0 0 20 21" fill="none" xmlns="http://www.w3.org/2000/svg">
<path fill-rule="evenodd" clip-rule="evenodd" d="M16.9449 7.78327V6.2973L10 3.2525L9.31918 3.55101V17.4489L10 17.7474L10.6809 17.4489V11.2578H12.4999V9.88472H10.6809V5.04897L13.9242 6.46472V16.0269L15.2859 15.4299V7.05911L16.9449 7.78327ZM18.364 15.6064V15.6151L10 19.2821L1.63608 15.6151V15.6065L1.59649 15.5891V5.41088L1.63608 5.39352V5.38474L10 1.71777L18.364 5.38474V5.39356L18.4035 5.41088V15.5891L18.364 15.6064ZM4.58422 5.62693L6.51134 11.8236V4.78203L7.87303 4.18504V16.8148L6.51134 16.2178V16.1534L6.44003 16.175L4.41766 9.67214V15.2999L3.05597 14.7029V6.29695L4.58422 5.62693ZM20 16.6158V4.38425L10 0L0 4.38425V16.6158L10 21L20 16.6158Z" fill="#78847B"/>
</svg>
