<svg width="28" height="28" viewBox="0 0 28 28" fill="none" xmlns="http://www.w3.org/2000/svg">
<rect width="26.768" height="26.768" transform="translate(0.615479 0.997314)" fill="black"/>
<path d="M20.6089 13.1254C20.5958 14.4335 20.255 15.7174 19.6175 16.8597C18.8924 18.1846 17.8029 19.274 16.4781 19.9992C14.9653 20.8116 13.2278 21.1049 11.5322 20.8341C9.83664 20.5633 8.27684 19.7434 7.09238 18.5003C5.90791 17.2572 5.16427 15.6597 4.97567 13.953C4.78707 12.2464 5.16394 10.525 6.04839 9.05325C6.93285 7.58152 8.27598 6.44082 9.87151 5.80636C11.467 5.17189 13.2267 5.07874 14.8803 5.5412C16.5339 6.00367 17.99 6.99618 19.0249 8.36631C20.0598 9.73644 20.6163 11.4084 20.6089 13.1254Z" stroke="white" stroke-width="1.673" stroke-miterlimit="10" stroke-linecap="square"/>
<path d="M22.4431 22.8248C22.2403 23.0294 21.999 23.1918 21.7331 23.3026C21.4672 23.4134 21.182 23.4705 20.894 23.4705C20.6059 23.4705 20.3207 23.4134 20.0549 23.3026C19.789 23.1918 19.5477 23.0294 19.3449 22.8248L16.4781 19.9993C17.803 19.2742 18.8924 18.1847 19.6175 16.8599L22.4431 19.6936C22.6527 19.897 22.8193 20.1403 22.9331 20.4092C23.0469 20.6782 23.1056 20.9672 23.1056 21.2592C23.1056 21.5513 23.0469 21.8403 22.9331 22.1092C22.8193 22.3782 22.6527 22.6215 22.4431 22.8248V22.8248Z" stroke="white" stroke-width="1.673" stroke-linecap="round" stroke-linejoin="round"/>
<path d="M8.94342 12.7784C8.94342 11.8625 9.30726 10.9841 9.9549 10.3364C10.6025 9.68879 11.4809 9.32495 12.3968 9.32495" stroke="white" stroke-width="1.673" stroke-linecap="round" stroke-linejoin="round"/>
</svg>
