<svg width="28" height="28" viewBox="0 0 28 28" fill="none" xmlns="http://www.w3.org/2000/svg">
<path d="M14.248 18.1418C16.0543 18.1418 17.5185 16.6775 17.5185 14.8713C17.5185 13.0651 16.0543 11.6008 14.248 11.6008C12.4418 11.6008 10.9776 13.0651 10.9776 14.8713C10.9776 16.6775 12.4418 18.1418 14.248 18.1418Z" stroke="#78847B" stroke-width="1.664" stroke-miterlimit="10"/>
<path d="M23.2868 18.6099C23.2868 19.6023 22.8932 20.5541 22.1922 21.2566C21.4913 21.9591 20.5403 22.3548 19.548 22.357H8.94767C7.9553 22.3548 7.00433 21.9591 6.30339 21.2566C5.60245 20.5541 5.2088 19.6023 5.2088 18.6099V14.2383C5.21122 13.247 5.60383 12.2964 6.3017 11.5923L11.6018 6.3004C11.9491 5.95256 12.3616 5.67661 12.8156 5.48832C13.2696 5.30004 13.7563 5.20312 14.2478 5.20312C14.7393 5.20313 15.226 5.30004 15.68 5.48832C16.1341 5.67661 16.5465 5.95256 16.8938 6.3004L22.1939 11.5923C22.8918 12.2964 23.2844 13.247 23.2868 14.2383V18.6099Z" stroke="#78847B" stroke-width="1.664" stroke-miterlimit="10"/>
</svg>
