<svg width="20" height="13" viewBox="0 0 20 13" fill="none" xmlns="http://www.w3.org/2000/svg">
<path fill-rule="evenodd" clip-rule="evenodd" d="M18.5234 0.598389H17.4141C16.8014 0.598389 16.3048 1.09505 16.3048 1.70772V11.3219C16.3048 11.9346 16.8014 12.4313 17.4141 12.4313H18.5234C19.1361 12.4313 19.6328 11.9346 19.6328 11.3219V1.70772C19.6328 1.09505 19.1361 0.598389 18.5234 0.598389ZM12.2373 3.18674H13.3466C13.9593 3.18674 14.4559 3.68341 14.4559 4.29608V11.3219C14.4559 11.9345 13.9593 12.4312 13.3466 12.4312H12.2373C11.6246 12.4312 11.1279 11.9345 11.1279 11.3219V4.29608C11.1279 3.68341 11.6246 3.18674 12.2373 3.18674ZM8.16962 5.77537H7.06029C6.44762 5.77537 5.95095 6.27203 5.95095 6.8847V11.322C5.95095 11.9347 6.44762 12.4314 7.06029 12.4314H8.16962C8.78229 12.4314 9.27895 11.9347 9.27895 11.322V6.8847C9.27895 6.27203 8.78229 5.77537 8.16962 5.77537ZM2.99278 7.99404H1.88344C1.27077 7.99404 0.774109 8.4907 0.774109 9.10337V11.322C0.774109 11.9347 1.27077 12.4314 1.88344 12.4314H2.99278C3.60544 12.4314 4.10211 11.9347 4.10211 11.322V9.10337C4.10211 8.4907 3.60544 7.99404 2.99278 7.99404Z" fill="white"/>
</svg>
