<svg width="18" height="13" viewBox="0 0 18 13" fill="none" xmlns="http://www.w3.org/2000/svg">
<path fill-rule="evenodd" clip-rule="evenodd" d="M8.68102 2.75166C11.1392 2.75176 13.5033 3.69629 15.2849 5.39002C15.419 5.52078 15.6335 5.51913 15.7656 5.38632L17.048 4.0921C17.1149 4.02474 17.1522 3.9335 17.1516 3.83856C17.1511 3.74362 17.1127 3.65282 17.045 3.58625C12.3691 -0.89496 4.99222 -0.89496 0.316271 3.58625C0.248537 3.65277 0.210105 3.74355 0.20948 3.83848C0.208856 3.93342 0.24609 4.02469 0.312943 4.0921L1.5957 5.38632C1.72774 5.51934 1.94234 5.52099 2.07641 5.39002C3.85817 3.69618 6.22261 2.75165 8.68102 2.75166ZM8.68111 6.96225C10.0317 6.96217 11.3341 7.46417 12.3353 8.37073C12.4707 8.49939 12.684 8.4966 12.816 8.36445L14.0969 7.07022C14.1643 7.00234 14.2018 6.91024 14.2008 6.81455C14.1998 6.71885 14.1605 6.62754 14.0917 6.56104C11.043 3.72516 6.32178 3.72516 3.27311 6.56104C3.20425 6.62754 3.16496 6.7189 3.16405 6.81462C3.16315 6.91035 3.20071 7.00244 3.2683 7.07022L4.54884 8.36445C4.68084 8.4966 4.89415 8.49939 5.02956 8.37073C6.03003 7.46477 7.3314 6.96281 8.68111 6.96225ZM11.2469 9.79528C11.2489 9.89124 11.2112 9.98376 11.1427 10.051L8.92695 12.287C8.862 12.3528 8.77345 12.3897 8.68105 12.3897C8.58865 12.3897 8.5001 12.3528 8.43515 12.287L6.21907 10.051C6.15061 9.98372 6.11295 9.89116 6.11498 9.7952C6.11701 9.69923 6.15855 9.60836 6.22979 9.54403C7.64483 8.34719 9.71727 8.34719 11.1323 9.54403C11.2035 9.60841 11.245 9.69931 11.2469 9.79528Z" fill="white"/>
</svg>
